<?xml version="1.0" encoding="UTF-8" standalone="no"?>
<!DOCTYPE svg PUBLIC "-//W3C//DTD SVG 1.1//EN" "http://www.w3.org/Graphics/SVG/1.1/DTD/svg11.dtd">
<svg width="100%" height="100%" viewBox="0 0 200 200" version="1.1" xmlns="http://www.w3.org/2000/svg" xmlns:xlink="http://www.w3.org/1999/xlink" xml:space="preserve" xmlns:serif="http://www.serif.com/" style="fill-rule:evenodd;clip-rule:evenodd;stroke-linejoin:round;stroke-miterlimit:2;">
    <g transform="matrix(1.36364,0,0,1.66667,-45.4545,50)">
        <path d="M180,26.958C180,23.345 178.246,19.879 175.122,17.324C171.999,14.769 167.764,13.333 163.347,13.333L49.986,13.333C45.57,13.333 41.334,14.769 38.211,17.324C35.088,19.879 33.333,23.345 33.333,26.958L33.333,33.042C33.333,36.655 35.088,40.121 38.211,42.676C41.334,45.231 45.57,46.667 49.986,46.667L163.347,46.667C167.764,46.667 171.999,45.231 175.122,42.676C178.246,40.121 180,36.655 180,33.042L180,26.958Z"/>
    </g>
    <g transform="matrix(1.36364,0,0,1.66667,-45.4545,122.222)">
        <path d="M180,26.958C180,23.345 178.246,19.879 175.122,17.324C171.999,14.769 167.764,13.333 163.347,13.333L49.986,13.333C45.57,13.333 41.334,14.769 38.211,17.324C35.088,19.879 33.333,23.345 33.333,26.958L33.333,33.042C33.333,36.655 35.088,40.121 38.211,42.676C41.334,45.231 45.57,46.667 49.986,46.667L163.347,46.667C167.764,46.667 171.999,45.231 175.122,42.676C178.246,40.121 180,36.655 180,33.042L180,26.958Z"/>
    </g>
    <g transform="matrix(1.36364,0,0,1.66667,-45.4545,-22.2222)">
        <path d="M180,26.958C180,23.345 178.246,19.879 175.122,17.324C171.999,14.769 167.764,13.333 163.347,13.333L49.986,13.333C45.57,13.333 41.334,14.769 38.211,17.324C35.088,19.879 33.333,23.345 33.333,26.958L33.333,33.042C33.333,36.655 35.088,40.121 38.211,42.676C41.334,45.231 45.57,46.667 49.986,46.667L163.347,46.667C167.764,46.667 171.999,45.231 175.122,42.676C178.246,40.121 180,36.655 180,33.042L180,26.958Z"/>
    </g>
</svg>
